<?xml version="1.0" encoding="UTF-8"?>
<svg version="1.1" viewBox="0 0 1600 1296" width="1280" height="1280" xmlns="http://www.w3.org/2000/svg">
<path transform="translate(768,8)" d="m0 0h64l2 1 16 1 6 2h11l7 2 6 1 7 1 16 4 10 2 33 9 25 9 22 9 18 8 17 9 18 10 17 10 17 12 16 12 13 11 10 8 12 11 24 24 9 11 11 12 26 34 12 17 8 14 12 20 4 6 2 1 1-3 8-7 40-40 10-8 27-27 7-3h16l7 4 6 5 5 8 1 3 1 229 4 2 17 17 7 9 1 1 119 1 12 4 8 6 5 8 3 10v204l-4 10-9 10-12 6-4 1-44 1-15 9-23 12-24 13-16 9-29 16-28 15-18 10-15 8-23 13-23 12-16 9-27 15-12 7-12 6-19 10-35 18-20 10-1 229 16-1 1-1h171l11 4 8 6 4 6 2 8v11l-3 9-9 9-11 5h-130l2 9 9 9 5 11v16l-4 9-7 8-7 4-13 3h-689l-1-1-36-1-6-4-8-8-4-8v-18l4-8 7-9 6-7 1-4-139-1-10-4-8-9-4-9v-13l4-10 5-6 8-4 14-2 1-1h171v-228l-9-1-26-6-26-10-25-13-11-7-17-12-18-14-23-23-6-8-9-10-7-10-9-13-11-18-8-14-11-25-7-22-7-26-2-10-1-12-2-7v-12l-1-3-1-38 2-11v-9l2-7 3-19 4-16-1-5-31-31-5 1-22 6-7 1-5 1h-20l-8-2-9-2-18-7-17-9-5-4-6-4v-2h-2v-2l-4-2-11-14-6-9-7-14-5-15-2-8v-42l6-20 5-12 9-14 8-10 11-11 18-11 17-7 18-5 4-1h26l19 5 16 6 16 9 15 15 6 12 3 9-1 8-5 10-8 7-9 4-4 1h-9l-12-6-7-7-9-6-7-5-6-1-10-2-10 1-11 4-12 7-3 3h-2l-2 4-8 14-3 10v21l6 15 10 14 9 7 11 5 12 3h5l-2-5-3-7v-14l4-9 7-8 10-5 6-1h8l8 3 8 7 57 57 4-5 13-22 13-18 6-8 9-11 2-3 1-14 6-25 11-32 12-29 8-18 8-16 8-15 12-20 9-13 10-15 9-12 12-14 9-11 12-13 24-24 10-8 11-10 30-23 15-10 22-13 19-10 15-8 25-11 29-11 29-9 15-4 16-3 6-2 14-2 6-1 7-1 10-2 16-1zm-95 982v159l219 1 2 1h20l1-50v-58l-1-53z" fill="#102754"/>
<path transform="translate(578,351)" d="m0 0h399l31 1 33 4 21 5 24 9 23 12 12 9 2 3-16 16-16 10-18 12-17 13-12 11-11 11-11 14-7 10-12 21-8 20-7 24-4 28-1 250-3 19-7 21-5 9-2 4h-2v2h-12l-20-1-15-2-3-2 8-2 8-6 4-6 1-4v-9l-5-9-8-5-8-1h-193l-9 2-5 4-3 6-1 4v10l4 8 4 5 6 4v2l-20 1h-26l-2-23-4-21-6-18-8-16-10-16-13-16-16-16-17-12-15-9-13-6-15-5-8-2-19-2-3-1h-86l-1 1-15 2-8 6-5 6-3 6v14l6 11 9 8 3 3 11 2h86l18 4 9 4 10 4v2l4 1 5 3v2l4 1 11 10 8 10v2h2l8 12v3h2l3 7 5 15 3 13 1 9v109h-76l-1-81-2-7-3-10-6-10-11-12-6-4v-2h-3v-2l-4-1-17-8-34-7-16-6-16-8-14-9-18-14-2-4-4-2-8-9-3-1-7-8-12-15-12-18-11-19-8-18-10-30-5-22-3-26v-27l2-29 4-26 7-24 7-19 10-21 12-20 5-7h2l1-4 2-3h2l2-5 9-10 7-8 12-12 11-9 12-10 21-14 24-13 28-12 25-8 21-5 27-4z" fill="#FBF9FA"/>
<path transform="translate(768,8)" d="m0 0h64l2 1 16 1 6 2h11l7 2 6 1 7 1 16 4 10 2 33 9 25 9 22 9 18 8 17 9 18 10 17 10 17 12 16 12 13 11 10 8 12 11 24 24 9 11 11 12 26 34 3 4 3 7 8 13 10 17 3 8-4 3-10 3-8 1-3-1-7 1-3 2h-36l1-2-11-1-23-1-4-1-15-1h-36l-23 2-23 1-7 1h-8l-1 1-15 1-5-1h-10l-6-2h-9l-14-3-31-3-29-1h-10l-7-1-4 2v1h-9l-4-2h-81l-10-1-3-2-7 1h-58l-4 1-8-1-9 1h-9l-21 3h-16l-4-1-1 1-15 1h-15l-12 1h-38l-15-1-7 1-28 2-34 1-15 1-14 3-9 3-16 3-10 3h-7l3 2-16-1-8 3-5 5h-2l1-7 11-23 4-7 4-10 26-39 9-12 12-14 9-11 12-13 24-24 10-8 11-10 30-23 15-10 22-13 19-10 15-8 25-11 29-11 29-9 15-4 16-3 6-2 14-2 6-1 7-1 10-2 16-1z" fill="#0F2654"/>
<path transform="translate(1143,473)" d="m0 0h150l18 2 17 5 16 9 2 2v240l-28 15-23 13-19 10-23 13-26 14-22 12-41 21-19 10-22 11-18 10-13 10-9 10-9 13-9 16-6 15-1 3h-2l-1 9-1 6-1 54-79-1v-28l11-11 8-7 7-8 11-14 12-20 9-21 4-15 4-22 1-10 1-235 2-25 4-20 4-12 7-16 11-17 11-13 8-8 13-9 16-7 14-3z" fill="#FCFAFA"/>
<path transform="translate(680,430)" d="m0 0h22l18 2 15 4 16 6 21 12 12 9 12 11 10 11 9 13 8 14 8 21 3 12 2 15v30l-4 21-5 15-11 23-10 14-11 12-7 7-14 11-16 9-15 6-17 5-19 3h-29l-20-3-20-6-15-7-15-9-13-11-12-12-11-15-10-17-8-20-4-17-1-6v-32l2-15 6-20 5-12 8-15 9-13 9-10 7-8 11-9 11-8 19-10 16-6 20-4z" fill="#0F2654"/>
<path transform="translate(440,1206)" d="m0 0h29l52 1h654l2 9 9 9 5 11v16l-4 9-7 8-7 4-13 3h-689l-1-1-36-1-6-4-8-8-4-8v-18l4-8 7-9 6-7 1-5z" fill="#A69FBD"/>
<path transform="translate(1204,227)" d="m0 0 5 5 17 28 9 15 4 5-7 1-2 5-11 11-9 11-22 22-7 8-8 8-2 4-5-1-14-10-18-11-15-8-19-8-27-9-22-5-23-3-14-1h-450l-27 2-25 4-28 7-27 9-18 8-16 8-21 11-19 12-14 10-14 11-10 9-8 7-10 10-4 6h-1v-13l6-25 11-32 12-29 8-18 8-16 8-15 2-1-2 6-10 19-4 10-1 4 4-3h2l1-3 8-3 13 1-2-2h9l14-4 16-3 12-4 18-2h15l23-1 42-3 9 1h37l14-1h19l9-1 3-1 7 1h11l23-3h13l6-1 6 1 3-1h58l7-1 3 2 17 1h76l6 1h3l6-2 7 1h17l22 1 31 3 14 3h10l7 2h9l9 1 10-1 1-1h10l7-1 21-1 28-2h31l15 1 4 1 26 1 8 1 25 1v1h8l8-2 5-1 6 1 14-4 3-3-6-12-13-22-4-6z" fill="#69718F"/>
<path transform="translate(685,490)" d="m0 0h14l14 2 15 6 11 7 11 9 7 7 5 7 6 11 5 15 2 11v20l-3 16-7 16-10 14-9 9-13 9-13 6-14 3-16 1-15-2-16-5-13-7-10-8-8-8-10-15-6-16-2-10v-24l4-17 5-12 8-14 10-11 15-10 14-6 12-3z" fill="#FCFAFA"/>
<path transform="translate(1042,604)" d="m0 0h1v227l42-12 28-10 22-9 27-12 24-12 18-10 26-16 21-14 32-22 19-14 11-9 10-9 14-13 7-8h1l1 39v31l-28 15-23 13-19 10-23 13-26 14-22 12-41 21-19 10-22 11-18 10-13 10-9 10-9 13-9 16-6 15-1 3h-2l-1 9-1 6-1 54-79-1v-28l11-11 8-7 7-8 11-14 12-20 9-21 4-15 4-22 1-10z" fill="#A59EBC"/>
<path transform="translate(721,841)" d="m0 0h193l10 2 7 5 5 9v9l-3 7-4 5-9 6-3 1 15 2 32 2-6 9-9 10-13 10-16 8-8 2-9 1h-231l-1-1v-19l1-21 25-1h20v-2l-4-2-5-5-4-5-2-5v-10l3-8 4-5 5-3z" fill="#A59EBC"/>
<path transform="translate(434,463)" d="m0 0 15 1 15 5 10 6 10 9 7 8 7 12 4 16 1 16-2 13-6 14-7 10-11 11-11 7-12 5-16 3-14-1-13-4-8-4-10-8-7-7-9-13-4-8-3-14v-13l3-18 5-10 7-11 6-7 12-9h3v-2l15-5z" fill="#0F2654"/>
<path transform="translate(1155,627)" d="m0 0h9l16 3 12 6 13 11 10 14 3 5 4 15v24l-6 18-9 13-7 7-14 9-14 5-6 1h-18l-13-4-14-8-13-13-7-11-4-8-3-12v-18l4-15 9-15 9-10 10-8 11-6 9-2z" fill="#0F2654"/>
<path transform="translate(1404,531)" d="m0 0h81v137l-8 3-21 7-30 14-19 8h-2l-1-38z" fill="#FDFBFB"/>
<path transform="translate(1305,291)" d="m0 0h2v139l-1 1h-145l21-21 8-7 25-25 8-7 25-25 8-7 7-8h3l2-4 7-8 8-7 13-13 8-7z" fill="#A49EBB"/>
<path transform="translate(725,767)" d="m0 0h192l7 3 7 6 3 6v15l-7 9-6 4-4 1h-200l-6-3-7-8-2-6v-13l4-7 7-5z" fill="#102654"/>
<path transform="translate(721,841)" d="m0 0h193l10 2 7 5 5 9v9l-3 7-4 5-7 5-164 1h-44l-5-4-5-7-2-5v-10l3-8 4-5 5-3z" fill="#0F2654"/>
<path transform="translate(1143,473)" d="m0 0h150l18 2 17 5 16 9 2 2v21l-64-1h-189l-19-1 6-8 9-9 13-9 16-7 14-3z" fill="#A59EBC"/>
<path transform="translate(900,519)" d="m0 0h11l8 4 6 8 1 4v160l-5 9-5 5-4 3-8 1-9-3-5-5-4-5-2-9v-154l4-10 8-6z" fill="#112855"/>
<path transform="translate(974,1052)" d="m0 0h25l53 1 1 13v84h-80v-34z" fill="#A49EBC"/>
<path transform="translate(536,1053)" d="m0 0h76l1 2v94l-5 1h-72z" fill="#A59EBC"/>
<path transform="translate(357,295)" d="m0 0h1l-1 13 6 1h24l13-2 4-2 17-3 11-2 15 1 13 3 11-1 15-4h8l19-4h13v2l-35 8-23 7-25 10-36 18-23 14-16 12-13 10-10 9-8 7-10 10-4 6h-1v-13l6-25 11-32 12-29z" fill="#707D99"/>
<path transform="translate(888,386)" d="m0 0h11l9 2 9 5 6 5 7 11 3 6 1 5v17l-5 12-8 9-9 6-12 4h-14l-10-3-8-5-6-5-6-10-3-9v-14l4-14 6-9 8-7 8-4z" fill="#0F2654"/>
<path transform="translate(1244,526)" d="m0 0h13l11 4 9 7 7 11 3 7 1 13-2 10-5 10-6 7-10 6-8 3-6 1h-8l-13-4-9-7-6-7-4-8-1-5v-17l3-9 6-9 10-8 10-4z" fill="#0F2654"/>
<path transform="translate(1219,285)" d="m0 0h5l1 3-4 5-4 7-14 15-15 15-7 8-8 8-2 4-5-1-14-10-18-11-15-8-19-8-27-9-22-5-9-2v-1h24l9 1 11-2 6-2 7-1h24l21 2 9 1h24l6 1h9l13-5 10-2v-2z" fill="#6F7C98"/>
<path transform="translate(777,98)" d="m0 0h8l5 3 4 5 1 3v17l21 1 7 3 5 5 2 4v7l-4 6-3 3-5 2h-23v22l-4 6-5 3h-11l-5-4-4-8v-19h-26l-5-4-3-6v-9l3-5 7-5 6-1h18v-19l3-5 5-4z" fill="#F9F7F8"/>
<path transform="translate(685,535)" d="m0 0h14l6 2 10 6 7 8 3 5 2 10v9l-3 9-8 11-10 7-11 4h-10l-14-7-7-7-5-8-2-5v-14l3-11 6-8 7-6 7-4z" fill="#0F2654"/>
<path transform="translate(769,544)" d="m0 0 2 3 4 18v20l-3 16-7 16-10 14-9 9-13 9-13 6-14 3-16 1-15-2-16-5-13-7-10-8-8-8-10-15-6-16-2-10v-24l2-10 2 3 2-1 2 20 5 17 9 17 8 10 9 8 17 9 15 4h20l16-4 14-6 9-7 10-10 7-11 5-12 4-15 1-29z" fill="#A49DBB"/>
<path transform="translate(1404,531)" d="m0 0h1l1 129 23-12 23-11 26-13 5-3 1-66h1v113l-8 3-21 7-30 14-19 8h-2l-1-38z" fill="#A49EBC"/>
<path transform="translate(1094,864)" d="m0 0 2 1-9 10-12 16-10 18-6 15-1 3h-2l-1 9-1 6-1 54-66-1v-3l10-8 10-9 10-10 10-13 8-13 10-19 7-18 7-26 3-3 16-4z" fill="#F9F7F8"/>
<path transform="translate(977,148)" d="m0 0h21l1 1v28h30v25h-30v28h-19l-4-2v-25h-30l-2-1-1-6v-19h33v-28z" fill="#F8F5F7"/>
<path transform="translate(1305,291)" d="m0 0h2v49l-13 5-11 6-19 12-33 22-15 11-17 12-16 11-12 9-7 3-3-1 13-12 8-8 8-7 25-25 8-7 25-25 8-7 7-8h3l2-4 7-8 8-7 13-13 8-7z" fill="#F9F7F8"/>
<path transform="translate(379,637)" d="m0 0h12l9 3 8 6 6 9 2 4 1 13-2 8-6 9-8 6-11 4h-10l-10-4-7-6-5-9-2-5v-13l4-13 10-8z" fill="#0F2654"/>
<path transform="translate(467,637)" d="m0 0h9l9 2 10 7 6 9 2 5v16l-4 8-6 7-12 7-3 1h-12l-12-6-8-9-3-8-1-6v-9l4-10 5-6 9-6z" fill="#102755"/>
<path transform="translate(547,1053)" d="m0 0h55l1 2-1 43-1 1h-54z" fill="#FDFBFB"/>
<path transform="translate(987,1053)" d="m0 0h55v45l-7 1h-48z" fill="#FDFBFB"/>
<path transform="translate(348,316)" d="m0 0h1l-1 7-3 9-1 8 5-1h8l4-3h11l11-3 19-3 10-1 1 4-18 13-6 3-14 10-5 5-16 13-15 13-12 12-4 6h-1v-13l6-25 11-32z" fill="#8087A1"/>
<path transform="translate(429,504)" d="m0 0h11l10 4 7 6 6 12v12l-4 8-4 5-9 6-7 2h-8l-10-4-8-7-4-8-1-5v-8l3-8 6-8 5-4z" fill="#A49EBB"/>
<path transform="translate(1153,665)" d="m0 0h11l10 5 8 9 3 9v9l-3 9-7 8-8 5-4 1h-11l-9-4-7-7-4-8-1-4v-9l4-9 6-8 8-5z" fill="#A59EBC"/>
<path transform="translate(1134,310)" d="m0 0h20l21 3h21l3 3-2 5-9 9-7 8-8 8-2 4-5-1-14-10-18-11-15-8-16-7 3-1h20z" fill="#7F86A1"/>
<path transform="translate(603,851)" d="m0 0 2 3 5 18 2 14v109h-8l-1-7z" fill="#A49DBB"/>
<path transform="translate(1024,355)" d="m0 0h11l20 4 21 7 18 8 15 8 12 9 2 3-13 13-7-6-10-9-14-11-16-10-19-9-15-5-5-1z" fill="#A49DBB"/>
<path transform="translate(578,172)" d="m0 0h8l5 3 4 5 1 3v9l-3 6-4 4-3 1h-9l-5-3-4-5-1-2v-11l4-6z" fill="#F0EEF1"/>
<path transform="translate(626,172)" d="m0 0h7l6 3 1 3h2l2 4v10l-3 5-7 6h-10l-5-5v-2h-2l-1-3v-11l4-6z" fill="#F4F2F4"/>
<path transform="translate(723,289)" d="m0 0 27 1 7 1h29l31-2h48l22 2v1l-12 1h-188l-2-2 9-1h16z" fill="#6F7C98"/>
<path transform="translate(513,295)" d="m0 0h13v2l-35 8-23 7-25 10-8 4-3-1 15-8 17-7-2-2 9-4 2-2 13-3h8z" fill="#6F7B98"/>
<path transform="translate(1053,936)" d="m0 0h1l-1 60-8-1-1-13 1-8 4-3 1-3 2-27z" fill="#9E99B7"/>
<path transform="translate(1204,227)" d="m0 0 5 5 17 28 9 15 4 5-5-1-4-4-8-16-14-24-4-6z" fill="#8288A4"/>
<path transform="translate(334,353)" d="m0 0 1 4-4 13-3 19-5 19h-1v-13l6-25z" fill="#A9A2BF"/>
<path transform="translate(470,305)" d="m0 0 3 1-2 1 6 1-2 2-20 7-16 7-4 2-3-1 15-8 17-7-2-2z" fill="#6A7290"/>
<path transform="translate(392,420)" d="m0 0 2 1-33 33v-3l14-15 9-9z" fill="#B7B6C9"/>
<path transform="translate(410,334)" d="m0 0m-1 1m-2 1 4 2-27 16-8 6-2-1 12-9 6-4 7-4z" fill="#6D7794"/>
<path transform="translate(364,366)" d="m0 0 2 1-13 11-14 12-8 8v-3l11-11 7-6h2v-2l10-8z" fill="#6D7794"/>
<path transform="translate(1483,622)" d="m0 0 2 3v43l-4 1 2-2v-34l-1-10z" fill="#7C849F"/>
<path transform="translate(376,259)" d="m0 0 1 2-14 27-3 7h-2l2-6 8-16z" fill="#858AA6"/>
<path transform="translate(542,292)" d="m0 0 14 1v1l-29 3v-3h8z" fill="#6F7B98"/>
<path transform="translate(437,1208)" d="m0 0h10l1 2-15 4 1-5z" fill="#FDFBFB"/>
<path transform="translate(1157,1209)" d="m0 0h18v5l-18-4z" fill="#FDFBFB"/>
<path transform="translate(692,290)" d="m0 0 14 1v2h-19l-2-2z" fill="#6E7A97"/>
<path transform="translate(410,334)" d="m0 0m-1 1m-2 1 4 2-9 5-3-1z" fill="#6E7996"/>
</svg>
